<svg width="80" height="80" viewBox="0 0 80 80" fill="none" xmlns="http://www.w3.org/2000/svg"><path opacity="0.4" fill-rule="evenodd" clip-rule="evenodd" d="M11.7117 38.4477C11.0665 37.8108 9.90194 37.7539 9.65512 38.6263C9.52573 39.0836 9.45557 39.5663 9.45557 40.0725C9.45557 42.4822 11.0452 44.3575 13.045 45.5111L33.8979 57.5404C35.9125 58.7026 38.3896 59.2094 40.7262 59.2094C43.0628 59.2094 45.5399 58.7026 47.5545 57.5404L68.4074 45.5111C70.4072 44.3575 71.9968 42.4822 71.9968 40.0725C71.9968 39.5663 71.9266 39.0836 71.7972 38.6263C71.5504 37.7539 70.3859 37.8108 69.7407 38.4477C69.2665 38.9158 68.7124 39.3275 68.1082 39.6761L66.1257 40.8198C66.034 40.8835 65.9307 40.9494 65.8145 41.0164L44.9617 53.0457C43.9211 53.646 42.394 54.0204 40.7262 54.0204C39.0584 54.0204 37.5312 53.646 36.4907 53.0457L15.6378 41.0164C15.5217 40.9494 15.4184 40.8835 15.3267 40.8198L13.3442 39.6761C12.7399 39.3275 12.1859 38.9158 11.7117 38.4477Z" fill="url(#paint0_linear_2538_88593)"></path><path opacity="0.4" fill-rule="evenodd" clip-rule="evenodd" d="M11.7151 51.3806C11.0699 50.7437 9.90536 50.6868 9.65854 51.5592C9.52915 52.0165 9.45898 52.4992 9.45898 53.0055C9.45899 55.4152 11.0486 57.2904 13.0484 58.444L33.9013 70.4733C35.9159 71.6355 38.3931 72.1423 40.7296 72.1423C43.0662 72.1423 45.5433 71.6355 47.5579 70.4733L68.4108 58.444C70.4106 57.2904 72.0002 55.4151 72.0002 53.0054C72.0002 52.4992 71.9301 52.0165 71.8007 51.5592C71.5539 50.6868 70.3893 50.7437 69.7441 51.3806C69.2699 51.8487 68.7159 52.2605 68.1116 52.609L66.1291 53.7527C66.0374 53.8165 65.9341 53.8823 65.8179 53.9493L44.9651 65.9786C43.9246 66.5789 42.3974 66.9534 40.7296 66.9534C39.0618 66.9534 37.5347 66.5789 36.4941 65.9786L15.6413 53.9493C15.5251 53.8823 15.4218 53.8165 15.3301 53.7527L13.3476 52.609C12.7433 52.2605 12.1893 51.8487 11.7151 51.3806Z" fill="url(#paint1_linear_2538_88593)"></path><path fill-rule="evenodd" clip-rule="evenodd" d="M34.5042 41.9536C34.1819 45.4043 41.4095 47.2642 45.6453 44.8207L69.7241 30.9304C73.96 28.4869 70.7356 24.3175 64.754 24.5034L62.9107 24.5607C60.7535 24.6278 59.099 25.691 59.2152 26.9354L59.4354 29.2933C59.4446 29.3911 59.5893 29.466 59.7587 29.4608C60.04 29.452 60.1917 29.6481 59.9925 29.763L46.6652 37.4511C45.3968 38.1828 43.2327 37.6258 43.3292 36.5926L44.0077 29.3274C44.2167 27.0894 41.0134 25.2415 37.1338 25.3621L24.5394 25.7537C22.7483 25.8094 21.7828 24.5609 23.0512 23.8293L36.3782 16.1413C36.5774 16.0264 36.9173 16.1139 36.9022 16.2762C36.8931 16.3739 37.023 16.4574 37.1924 16.4627L41.2799 16.5897C43.4371 16.6568 45.2801 15.7023 45.3964 14.4579L45.4957 13.3946C45.818 9.94393 38.5904 8.08392 34.3546 10.5274L10.2758 24.4177C6.04002 26.8612 9.26433 31.0306 15.246 30.8446L31.2499 30.3471C33.5732 30.2749 35.4915 31.3815 35.3664 32.7217L34.5042 41.9536Z" fill="url(#paint2_linear_2538_88593)"></path><defs><linearGradient id="paint0_linear_2538_88593" x1="40.7261" y1="38.9199" x2="40.7261" y2="57.3704" gradientUnits="userSpaceOnUse"><stop stop-color="#ECC94B"></stop><stop offset="1" stop-color="#EC7B4B"></stop></linearGradient><linearGradient id="paint1_linear_2538_88593" x1="40.7296" y1="51.8529" x2="40.7296" y2="70.3033" gradientUnits="userSpaceOnUse"><stop stop-color="#ECC94B"></stop><stop offset="1" stop-color="#EC7B4B"></stop></linearGradient><linearGradient id="paint2_linear_2538_88593" x1="54.7456" y1="36.1804" x2="40.0184" y2="10.6508" gradientUnits="userSpaceOnUse"><stop stop-color="#ECC94B"></stop><stop offset="1" stop-color="#EC7B4B"></stop></linearGradient></defs></svg>