<?xml version="1.0" encoding="UTF-8"?>
<!DOCTYPE svg PUBLIC "-//W3C//DTD SVG 1.1//EN" "http://www.w3.org/Graphics/SVG/1.1/DTD/svg11.dtd">
<svg xmlns="http://www.w3.org/2000/svg" version="1.1" width="350px" height="350px" style="shape-rendering:geometricPrecision; text-rendering:geometricPrecision; image-rendering:optimizeQuality; fill-rule:evenodd; clip-rule:evenodd" xmlns:xlink="http://www.w3.org/1999/xlink">
<g><path style="opacity:1" fill="#fefefe" d="M -0.5,-0.5 C 116.167,-0.5 232.833,-0.5 349.5,-0.5C 349.5,116.167 349.5,232.833 349.5,349.5C 232.833,349.5 116.167,349.5 -0.5,349.5C -0.5,232.833 -0.5,116.167 -0.5,-0.5 Z"/></g>
<g><path style="opacity:1" fill="#fc5b4f" d="M 165.5,77.5 C 155.396,86.4322 145.396,95.5988 135.5,105C 136.942,105.377 137.942,106.21 138.5,107.5C 128.91,102.641 120.243,103.974 112.5,111.5C 117.215,93.2855 128.549,81.4522 146.5,76C 152.972,75.2339 159.305,75.7339 165.5,77.5 Z"/></g>
<g><path style="opacity:1" fill="#fb5854" d="M 165.5,77.5 C 169.052,78.2759 172.386,79.6092 175.5,81.5C 175.489,83.0174 174.823,84.1841 173.5,85C 163.702,93.1293 154.202,101.629 145,110.5C 144.517,111.448 144.351,112.448 144.5,113.5C 142.833,111.167 140.833,109.167 138.5,107.5C 137.942,106.21 136.942,105.377 135.5,105C 145.396,95.5988 155.396,86.4322 165.5,77.5 Z"/></g>
<g><path style="opacity:1" fill="#7176ff" d="M 271.5,89.5 C 259.242,88.3548 246.909,88.1882 234.5,89C 233.956,89.7172 233.289,90.2172 232.5,90.5C 240.475,78.3369 251.142,75.5035 264.5,82C 267.739,83.7364 270.073,86.2364 271.5,89.5 Z"/></g>
<g><path style="opacity:1" fill="#fb575a" d="M 175.5,81.5 C 178.784,83.117 181.451,85.4503 183.5,88.5C 183.649,89.552 183.483,90.552 183,91.5C 171.475,101.501 160.308,111.834 149.5,122.5C 147.595,119.696 145.929,116.696 144.5,113.5C 144.351,112.448 144.517,111.448 145,110.5C 154.202,101.629 163.702,93.1293 173.5,85C 174.823,84.1841 175.489,83.0174 175.5,81.5 Z"/></g>
<g><path style="opacity:1" fill="#6f6eff" d="M 271.5,89.5 C 272.906,89.9731 273.573,90.9731 273.5,92.5C 274.292,98.1302 274.625,103.797 274.5,109.5C 259.5,109.5 244.5,109.5 229.5,109.5C 229.5,104.833 229.5,100.167 229.5,95.5C 230.687,93.9275 231.687,92.2608 232.5,90.5C 233.289,90.2172 233.956,89.7172 234.5,89C 246.909,88.1882 259.242,88.3548 271.5,89.5 Z"/></g>
<g><path style="opacity:1" fill="#fa5761" d="M 183.5,88.5 C 185.9,90.2964 187.567,92.6298 188.5,95.5C 188.657,96.8734 188.49,98.2068 188,99.5C 176.331,109.67 164.831,120.004 153.5,130.5C 151.659,128.151 150.326,125.485 149.5,122.5C 160.308,111.834 171.475,101.501 183,91.5C 183.483,90.552 183.649,89.552 183.5,88.5 Z"/></g>
<g><path style="opacity:1" fill="#fa5767" d="M 188.5,95.5 C 190.674,98.5154 192.341,101.849 193.5,105.5C 193.657,106.873 193.49,108.207 193,109.5C 181.867,120.81 170.034,131.144 157.5,140.5C 157.047,138.435 156.047,136.768 154.5,135.5C 154.737,134.209 154.404,133.209 153.5,132.5C 153.5,131.833 153.5,131.167 153.5,130.5C 164.831,120.004 176.331,109.67 188,99.5C 188.49,98.2068 188.657,96.8734 188.5,95.5 Z"/></g>
<g><path style="opacity:1" fill="#fe7f06" d="M 138.5,107.5 C 140.833,109.167 142.833,111.167 144.5,113.5C 145.929,116.696 147.595,119.696 149.5,122.5C 150.326,125.485 151.659,128.151 153.5,130.5C 153.5,131.167 153.5,131.833 153.5,132.5C 139.889,126.852 125.889,122.185 111.5,118.5C 111.5,117.5 111.5,116.5 111.5,115.5C 111.433,114.041 111.766,112.708 112.5,111.5C 120.243,103.974 128.91,102.641 138.5,107.5 Z"/></g>
<g><path style="opacity:1" fill="#f9576e" d="M 193.5,105.5 C 196.008,109.182 198.008,113.182 199.5,117.5C 186.596,127.397 174.263,138.063 162.5,149.5C 160.595,146.696 158.929,143.696 157.5,140.5C 170.034,131.144 181.867,120.81 193,109.5C 193.49,108.207 193.657,106.873 193.5,105.5 Z"/></g>
<g><path style="opacity:1" fill="#7267ff" d="M 229.5,109.5 C 244.5,109.5 259.5,109.5 274.5,109.5C 274.5,115.167 274.5,120.833 274.5,126.5C 259.5,126.5 244.5,126.5 229.5,126.5C 229.5,120.833 229.5,115.167 229.5,109.5 Z"/></g>
<g><path style="opacity:1" fill="#ff8705" d="M 111.5,115.5 C 111.5,116.5 111.5,117.5 111.5,118.5C 125.889,122.185 139.889,126.852 153.5,132.5C 154.404,133.209 154.737,134.209 154.5,135.5C 153.167,138.833 151.833,142.167 150.5,145.5C 149.85,145.804 149.183,146.137 148.5,146.5C 133.854,142.064 119.521,137.064 105.5,131.5C 106.929,125.871 108.929,120.537 111.5,115.5 Z"/></g>
<g><path style="opacity:1" fill="#f95676" d="M 199.5,117.5 C 201.771,121.709 203.771,126.042 205.5,130.5C 205.029,134.503 203.029,137.669 199.5,140C 189.608,148.733 179.608,157.233 169.5,165.5C 166.779,160.337 164.446,155.004 162.5,149.5C 174.263,138.063 186.596,127.397 199.5,117.5 Z"/></g>
<g><path style="opacity:1" fill="#f85580" d="M 205.5,130.5 C 207.951,133.74 209.618,137.407 210.5,141.5C 209.564,144.959 207.564,147.793 204.5,150C 194.608,158.733 184.608,167.233 174.5,175.5C 172.833,172.167 171.167,168.833 169.5,165.5C 179.608,157.233 189.608,148.733 199.5,140C 203.029,137.669 205.029,134.503 205.5,130.5 Z"/></g>
<g><path style="opacity:1" fill="#7660ff" d="M 229.5,126.5 C 244.5,126.5 259.5,126.5 274.5,126.5C 274.5,131.5 274.5,136.5 274.5,141.5C 259.5,141.5 244.5,141.5 229.5,141.5C 229.5,136.5 229.5,131.5 229.5,126.5 Z"/></g>
<g><path style="opacity:1" fill="#795aff" d="M 229.5,141.5 C 244.5,141.5 259.5,141.5 274.5,141.5C 274.5,145.5 274.5,149.5 274.5,153.5C 259.5,153.5 244.5,153.5 229.5,153.5C 229.5,149.5 229.5,145.5 229.5,141.5 Z"/></g>
<g><path style="opacity:1" fill="#f65489" d="M 210.5,141.5 C 214.615,148.067 217.949,155.067 220.5,162.5C 219.542,162.047 218.708,161.381 218,160.5C 206.295,171.042 194.462,181.376 182.5,191.5C 179.323,186.48 176.657,181.146 174.5,175.5C 184.608,167.233 194.608,158.733 204.5,150C 207.564,147.793 209.564,144.959 210.5,141.5 Z"/></g>
<g><path style="opacity:1" fill="#ff9106" d="M 105.5,131.5 C 119.521,137.064 133.854,142.064 148.5,146.5C 149.183,146.137 149.85,145.804 150.5,145.5C 147.55,154.024 144.216,162.357 140.5,170.5C 126.549,165.905 112.549,161.405 98.5,157C 97.244,156.583 96.5774,155.75 96.5,154.5C 98.9329,146.521 101.933,138.854 105.5,131.5 Z"/></g>
<g><path style="opacity:1" fill="#d8cdfe" d="M 229.5,95.5 C 229.5,100.167 229.5,104.833 229.5,109.5C 229.5,115.167 229.5,120.833 229.5,126.5C 229.5,131.5 229.5,136.5 229.5,141.5C 229.5,145.5 229.5,149.5 229.5,153.5C 229.5,158.167 229.5,162.833 229.5,167.5C 229.5,171.167 229.5,174.833 229.5,178.5C 229.167,178.5 228.833,178.5 228.5,178.5C 228.167,177.833 227.833,177.167 227.5,176.5C 228.167,149.5 228.833,122.5 229.5,95.5 Z"/></g>
<g><path style="opacity:1" fill="#9c7ffe" d="M 273.5,92.5 C 274.268,93.2625 274.768,94.2625 275,95.5C 275.5,140.499 275.667,185.499 275.5,230.5C 275.167,230.5 274.833,230.5 274.5,230.5C 274.5,221.833 274.5,213.167 274.5,204.5C 274.5,200.5 274.5,196.5 274.5,192.5C 274.5,188.5 274.5,184.5 274.5,180.5C 274.5,176.167 274.5,171.833 274.5,167.5C 274.5,162.833 274.5,158.167 274.5,153.5C 274.5,149.5 274.5,145.5 274.5,141.5C 274.5,136.5 274.5,131.5 274.5,126.5C 274.5,120.833 274.5,115.167 274.5,109.5C 274.625,103.797 274.292,98.1302 273.5,92.5 Z"/></g>
<g><path style="opacity:1" fill="#ff9906" d="M 96.5,154.5 C 96.5774,155.75 97.244,156.583 98.5,157C 112.549,161.405 126.549,165.905 140.5,170.5C 139.354,175.438 137.687,180.105 135.5,184.5C 121.032,180.511 106.699,176.011 92.5,171C 91.7476,170.329 91.4142,169.496 91.5,168.5C 92.6463,163.562 94.313,158.895 96.5,154.5 Z"/></g>
<g><path style="opacity:1" fill="#7c54ff" d="M 229.5,153.5 C 244.5,153.5 259.5,153.5 274.5,153.5C 274.5,158.167 274.5,162.833 274.5,167.5C 259.5,167.5 244.5,167.5 229.5,167.5C 229.5,162.833 229.5,158.167 229.5,153.5 Z"/></g>
<g><path style="opacity:1" fill="#f65393" d="M 220.5,162.5 C 222.008,164.181 223.008,166.181 223.5,168.5C 211.186,179.144 198.853,189.811 186.5,200.5C 184.796,197.744 183.463,194.744 182.5,191.5C 194.462,181.376 206.295,171.042 218,160.5C 218.708,161.381 219.542,162.047 220.5,162.5 Z"/></g>
<g><path style="opacity:1" fill="#7f4dfe" d="M 229.5,167.5 C 244.5,167.5 259.5,167.5 274.5,167.5C 274.5,171.833 274.5,176.167 274.5,180.5C 259.657,180.171 244.99,180.504 230.5,181.5C 229.596,180.791 229.263,179.791 229.5,178.5C 229.5,174.833 229.5,171.167 229.5,167.5 Z"/></g>
<g><path style="opacity:1" fill="#ffa006" d="M 91.5,168.5 C 91.4142,169.496 91.7476,170.329 92.5,171C 106.699,176.011 121.032,180.511 135.5,184.5C 134.167,188.5 132.833,192.5 131.5,196.5C 116.884,192.685 102.384,188.351 88,183.5C 86.9701,183.164 86.4701,182.497 86.5,181.5C 87.5961,176.868 89.2628,172.534 91.5,168.5 Z"/></g>
<g><path style="opacity:1" fill="#f5529a" d="M 223.5,168.5 C 225.341,170.849 226.674,173.515 227.5,176.5C 227.833,177.167 228.167,177.833 228.5,178.5C 216.73,188.429 205.064,198.595 193.5,209C 192.663,210.011 192.33,211.178 192.5,212.5C 189.992,208.818 187.992,204.818 186.5,200.5C 198.853,189.811 211.186,179.144 223.5,168.5 Z"/></g>
<g><path style="opacity:1" fill="#f450a1" d="M 228.5,178.5 C 228.833,178.5 229.167,178.5 229.5,178.5C 229.263,179.791 229.596,180.791 230.5,181.5C 231.833,184.833 233.167,188.167 234.5,191.5C 234.66,193.199 234.494,194.866 234,196.5C 222.751,207.192 211.251,217.525 199.5,227.5C 196.384,222.93 194.05,217.93 192.5,212.5C 192.33,211.178 192.663,210.011 193.5,209C 205.064,198.595 216.73,188.429 228.5,178.5 Z"/></g>
<g><path style="opacity:1" fill="#8347fe" d="M 274.5,180.5 C 274.5,184.5 274.5,188.5 274.5,192.5C 261.656,192.171 248.989,192.505 236.5,193.5C 235.833,192.833 235.167,192.167 234.5,191.5C 233.167,188.167 231.833,184.833 230.5,181.5C 244.99,180.504 259.657,180.171 274.5,180.5 Z"/></g>
<g><path style="opacity:1" fill="#ffa607" d="M 86.5,181.5 C 86.4701,182.497 86.9701,183.164 88,183.5C 102.384,188.351 116.884,192.685 131.5,196.5C 129.638,200.75 127.972,205.083 126.5,209.5C 111.08,205.471 96.0795,200.471 81.5,194.5C 82.5961,189.868 84.2628,185.534 86.5,181.5 Z"/></g>
<g><path style="opacity:1" fill="#8641fe" d="M 274.5,192.5 C 274.5,196.5 274.5,200.5 274.5,204.5C 263.448,203.857 252.781,204.524 242.5,206.5C 241.5,205.167 240.5,203.833 239.5,202.5C 238.698,199.426 237.698,196.426 236.5,193.5C 248.989,192.505 261.656,192.171 274.5,192.5 Z"/></g>
<g><path style="opacity:1" fill="#ffac07" d="M 81.5,194.5 C 96.0795,200.471 111.08,205.471 126.5,209.5C 124.638,213.75 122.972,218.083 121.5,222.5C 106.042,218.458 91.0417,213.458 76.5,207.5C 77.5961,202.868 79.2628,198.534 81.5,194.5 Z"/></g>
<g><path style="opacity:1" fill="#f350ac" d="M 234.5,191.5 C 235.167,192.167 235.833,192.833 236.5,193.5C 237.698,196.426 238.698,199.426 239.5,202.5C 239.649,203.552 239.483,204.552 239,205.5C 229.132,215.037 218.965,224.203 208.5,233C 206.536,234.451 205.203,236.284 204.5,238.5C 202.597,235.021 200.93,231.354 199.5,227.5C 211.251,217.525 222.751,207.192 234,196.5C 234.494,194.866 234.66,193.199 234.5,191.5 Z"/></g>
<g><path style="opacity:1" fill="#fa5a5d" d="M 152.5,196.5 C 170.245,195.399 177.411,203.399 174,220.5C 168.459,229.515 160.625,232.348 150.5,229C 141.373,222.283 139.206,213.783 144,203.5C 146.441,200.546 149.275,198.213 152.5,196.5 Z"/></g>
<g><path style="opacity:1" fill="#f34eb2" d="M 239.5,202.5 C 240.5,203.833 241.5,205.167 242.5,206.5C 243.167,208.5 243.833,210.5 244.5,212.5C 244.286,214.144 244.62,215.644 245.5,217C 236.797,225.371 227.797,233.371 218.5,241C 215.223,243.766 212.557,246.933 210.5,250.5C 207.992,246.818 205.992,242.818 204.5,238.5C 205.203,236.284 206.536,234.451 208.5,233C 218.965,224.203 229.132,215.037 239,205.5C 239.483,204.552 239.649,203.552 239.5,202.5 Z"/></g>
<g><path style="opacity:1" fill="#ffb207" d="M 76.5,207.5 C 91.0417,213.458 106.042,218.458 121.5,222.5C 119.344,228.319 117.01,233.985 114.5,239.5C 100.426,235.309 86.4259,230.809 72.5,226C 71.244,225.583 70.5774,224.75 70.5,223.5C 71.929,217.871 73.929,212.537 76.5,207.5 Z"/></g>
<g><path style="opacity:1" fill="#8c36fe" d="M 274.5,204.5 C 274.5,213.167 274.5,221.833 274.5,230.5C 273.789,234.382 271.456,236.882 267.5,238C 264.408,238.736 261.408,238.569 258.5,237.5C 255.337,233.844 252.671,229.844 250.5,225.5C 249.284,220.738 247.284,216.405 244.5,212.5C 243.833,210.5 243.167,208.5 242.5,206.5C 252.781,204.524 263.448,203.857 274.5,204.5 Z"/></g>
<g><path style="opacity:1" fill="#f24eb9" d="M 244.5,212.5 C 247.284,216.405 249.284,220.738 250.5,225.5C 250.649,226.552 250.483,227.552 250,228.5C 238.336,238.332 227.17,248.665 216.5,259.5C 213.723,257.049 211.723,254.049 210.5,250.5C 212.557,246.933 215.223,243.766 218.5,241C 227.797,233.371 236.797,225.371 245.5,217C 244.62,215.644 244.286,214.144 244.5,212.5 Z"/></g>
<g><path style="opacity:1" fill="#ffbb0c" d="M 70.5,223.5 C 70.5774,224.75 71.244,225.583 72.5,226C 86.4259,230.809 100.426,235.309 114.5,239.5C 112.327,248.85 108.327,257.35 102.5,265C 84.2083,275.458 71.0416,270.958 63,251.5C 62.9634,241.45 65.4634,232.116 70.5,223.5 Z"/></g>
<g><path style="opacity:1" fill="#f24dbf" d="M 250.5,225.5 C 252.671,229.844 255.337,233.844 258.5,237.5C 248.488,247.512 238.155,257.178 227.5,266.5C 229.184,267.15 230.517,268.15 231.5,269.5C 225.321,267.912 220.321,264.579 216.5,259.5C 227.17,248.665 238.336,238.332 250,228.5C 250.483,227.552 250.649,226.552 250.5,225.5 Z"/></g>
<g><path style="opacity:1" fill="#f14ec6" d="M 274.5,230.5 C 274.833,230.5 275.167,230.5 275.5,230.5C 275.073,259.941 260.406,272.941 231.5,269.5C 230.517,268.15 229.184,267.15 227.5,266.5C 238.155,257.178 248.488,247.512 258.5,237.5C 261.408,238.569 264.408,238.736 267.5,238C 271.456,236.882 273.789,234.382 274.5,230.5 Z"/></g>
</svg>
